<?xml version="1.0" encoding="UTF-8" standalone="no"?>
<svg width="142px" height="34px" viewBox="0 0 142 34" version="1.1" xmlns="http://www.w3.org/2000/svg" xmlns:xlink="http://www.w3.org/1999/xlink" xmlns:sketch="http://www.bohemiancoding.com/sketch/ns">
    <!-- Generator: Sketch 3.1.1 (8761) - http://www.bohemiancoding.com/sketch -->
    <title>Untitled 2</title>
    <desc>Created with Sketch.</desc>
    <defs></defs>
    <g id="Page-1" stroke="none" stroke-width="1" fill="none" fill-rule="evenodd" sketch:type="MSPage">
        <g id="logo-copie-2" sketch:type="MSLayerGroup">
            <path d="M19.217193,28.8 L22.1273684,27.1 L22.1273684,23.75 L19.217193,22.05 L16.2568421,23.75 L16.2568421,27.1 L19.217193,28.8 Z" id="Shape" fill="#CC274E" sketch:type="MSShapeGroup"></path>
            <path d="M19.217193,12.1 L22.1273684,10.4 L22.1273684,7 L19.217193,5.35 L16.2568421,7 L16.2568421,10.4 L19.217193,12.1 Z" id="Shape" fill="#CC274E" sketch:type="MSShapeGroup"></path>
            <path d="M14.9522807,20.2 L17.9126316,18.55 L17.9126316,15.15 L14.9522807,13.45 L12.0421053,15.15 L12.0421053,18.55 L14.9522807,20.2 Z" id="Shape" fill="#CC274E" sketch:type="MSShapeGroup"></path>
            <path d="M26.994386,30.4 L26.994386,30.65 L21.3245614,33.9 L21.1238596,33.8 L21.1238596,30.4 L24.0340351,28.7 L26.994386,30.4 Z" id="Shape" fill="#CC274E" sketch:type="MSShapeGroup"></path>
            <path d="M26.994386,3.4 L24.0340351,5.1 L21.1238596,3.4 L21.1238596,-1.82076576e-13 L21.274386,-0.05 L26.994386,3.2 L26.994386,3.4 Z" id="Shape" fill="#CC274E" sketch:type="MSShapeGroup"></path>
            <path d="M14.7014035,3.55 L16.3070175,2.65 L16.3070175,0.8 L14.7014035,-0.15 L13.0957895,0.8 L13.0957895,2.65 L14.7014035,3.55 Z" id="Shape" fill="#CC274E" sketch:type="MSShapeGroup"></path>
            <path d="M14.7014035,34.15 L16.3070175,33.25 L16.3070175,31.35 L14.7014035,30.45 L13.0957895,31.35 L13.0957895,33.25 L14.7014035,34.15 Z" id="Shape" fill="#CC274E" sketch:type="MSShapeGroup"></path>
            <path d="M7.72701754,27.25 L9.33263158,26.35 L9.33263158,24.5 L7.72701754,23.55 L6.12140351,24.5 L6.12140351,26.35 L7.72701754,27.25 Z" id="Shape" fill="#CC274E" sketch:type="MSShapeGroup"></path>
            <path d="M7.72701754,10.55 L9.33263158,9.65 L9.33263158,7.8 L7.72701754,6.85 L6.12140351,7.8 L6.12140351,9.65 L7.72701754,10.55 Z" id="Shape" fill="#CC274E" sketch:type="MSShapeGroup"></path>
            <path d="M1.80631579,18.7 L3.41192982,17.75 L3.41192982,15.9 L1.80631579,15 L0.200701754,15.9 L0.200701754,17.75 L1.80631579,18.7 Z" id="Shape" fill="#CC274E" sketch:type="MSShapeGroup"></path>
            <path d="M25.5894737,7.3 L25.5894737,12.05 L21.4750877,14.4 L21.4750877,19.15 L25.5894737,21.55 L25.5894737,26.25 L29.854386,28.75 L33.8182456,26.45 L33.8182456,7.3 L29.7038596,4.95 L25.5894737,7.3 Z" id="Shape" fill="#CC274E" sketch:type="MSShapeGroup"></path>
            <g id="Group" transform="translate(40.638596, 6.000000)" fill="#FFFFFF" sketch:type="MSShapeGroup">
                <path d="M25.6933333,21.6 L25.6933333,0.4 L40.0435088,0.4 L40.0435088,4.7 L30.6607018,4.7 L30.6607018,8.7 L39.4915789,8.7 L39.4915789,12.8 L30.6607018,12.8 L30.6607018,17.2 L40.5452632,17.2 L40.5452632,21.6 L25.6933333,21.6 L25.6933333,21.6 Z" id="Shape"></path>
                <path d="M55.3470175,21.6 L50.7308772,13.15 L48.9747368,13.15 L48.9747368,21.6 L43.957193,21.6 L43.957193,0.4 L52.085614,0.4 C53.0891228,0.4 54.0926316,0.5 55.0961404,0.7 C56.0494737,0.9 56.9526316,1.25 57.7052632,1.75 C58.4578947,2.25 59.1101754,2.9 59.5617544,3.75 C60.0133333,4.55 60.2642105,5.6 60.2642105,6.8 C60.2642105,8.25 59.862807,9.45 59.1101754,10.45 C58.3073684,11.45 57.2536842,12.15 55.8487719,12.55 L61.4182456,21.65 L55.3470175,21.65 L55.3470175,21.6 Z M55.1463158,6.9 C55.1463158,6.4 55.0459649,6 54.8452632,5.7 C54.6445614,5.4 54.3435088,5.15 54.0424561,5 C53.6912281,4.85 53.34,4.7 52.9385965,4.65 C52.537193,4.6 52.1357895,4.55 51.734386,4.55 L48.9747368,4.55 L48.9747368,9.5 L51.4333333,9.5 C51.8347368,9.5 52.2863158,9.45 52.7378947,9.4 C53.1894737,9.35 53.5908772,9.2 53.9421053,9 C54.2933333,8.8 54.594386,8.55 54.8452632,8.2 C55.0459649,7.85 55.1463158,7.45 55.1463158,6.9 L55.1463158,6.9 Z" id="Shape"></path>
                <path d="M72.6575439,4.75 L72.6575439,21.6 L67.4894737,21.6 L67.4894737,4.75 L61.4684211,4.75 L61.4684211,0.35 L78.6785965,0.35 L78.6785965,4.75 L72.6575439,4.75 L72.6575439,4.75 Z" id="Shape"></path>
                <path d="M89.9680702,-0.2 C83.9470175,-0.2 79.0298246,4.7 79.0298246,10.7 C79.0298246,16.7 83.9470175,21.6 89.9680702,21.6 C95.9891228,21.6 100.906316,16.7 100.906316,10.7 C100.906316,4.7 96.0392982,-0.2 89.9680702,-0.2 L89.9680702,-0.2 Z M89.9680702,17 C86.5059649,17 83.6961404,14.2 83.6961404,10.75 C83.6961404,7.3 86.5059649,4.5 89.9680702,4.5 C93.4301754,4.5 96.24,7.3 96.24,10.75 C96.2901754,14.2 93.4803509,17 89.9680702,17 L89.9680702,17 Z" id="Shape"></path>
                <path d="M11.1926316,-0.2 C5.17157895,-0.2 0.254385965,4.7 0.254385965,10.7 C0.254385965,16.7 5.17157895,21.6 11.1926316,21.6 C17.2136842,21.6 22.1308772,16.7 22.1308772,10.7 C22.1308772,4.7 17.2638596,-0.2 11.1926316,-0.2 L11.1926316,-0.2 Z M11.1926316,17 C7.73052632,17 4.92070175,14.2 4.92070175,10.75 C4.92070175,7.3 7.73052632,4.5 11.1926316,4.5 C14.6547368,4.5 17.4645614,7.3 17.4645614,10.75 C17.5147368,14.2 14.7049123,17 11.1926316,17 L11.1926316,17 Z" id="Shape"></path>
                <path d="M23.134386,18.8 L19.6221053,15.3 C18.9698246,17.05 17.5649123,18.45 15.8087719,19.1 L19.3210526,22.6 C20.8764912,21.65 22.1810526,20.35 23.134386,18.8 L23.134386,18.8 Z" id="Shape"></path>
            </g>
        </g>
    </g>
</svg>