<?xml version="1.0" encoding="UTF-8" standalone="no"?>
<svg width="143px" height="34px" viewBox="0 0 143 34" version="1.1" xmlns="http://www.w3.org/2000/svg" xmlns:xlink="http://www.w3.org/1999/xlink" xmlns:sketch="http://www.bohemiancoding.com/sketch/ns">
    <!-- Generator: Sketch 3.1.1 (8761) - http://www.bohemiancoding.com/sketch -->
    <title>Untitled 2</title>
    <desc>Created with Sketch.</desc>
    <defs></defs>
    <g id="Page-1" stroke="none" stroke-width="1" fill="none" fill-rule="evenodd" sketch:type="MSPage">
        <g id="logo-copie" sketch:type="MSLayerGroup">
            <path d="M19.217193,28.8 L22.1273684,27.1 L22.1273684,23.75 L19.217193,22.05 L16.2568421,23.75 L16.2568421,27.1 L19.217193,28.8 Z" id="Shape" fill="#CC274E" sketch:type="MSShapeGroup"></path>
            <path d="M19.217193,12.1 L22.1273684,10.4 L22.1273684,7 L19.217193,5.35 L16.2568421,7 L16.2568421,10.4 L19.217193,12.1 Z" id="Shape" fill="#CC274E" sketch:type="MSShapeGroup"></path>
            <path d="M14.9522807,20.2 L17.9126316,18.55 L17.9126316,15.15 L14.9522807,13.45 L12.0421053,15.15 L12.0421053,18.55 L14.9522807,20.2 Z" id="Shape" fill="#CC274E" sketch:type="MSShapeGroup"></path>
            <path d="M26.994386,30.4 L26.994386,30.65 L21.3245614,33.9 L21.1238596,33.8 L21.1238596,30.4 L24.0340351,28.7 L26.994386,30.4 Z" id="Shape" fill="#CC274E" sketch:type="MSShapeGroup"></path>
            <path d="M26.994386,3.4 L24.0340351,5.1 L21.1238596,3.4 L21.1238596,2.66453526e-15 L21.274386,-0.05 L26.994386,3.2 L26.994386,3.4 Z" id="Shape" fill="#CC274E" sketch:type="MSShapeGroup"></path>
            <path d="M14.7014035,3.55 L16.3070175,2.65 L16.3070175,0.8 L14.7014035,-0.15 L13.0957895,0.8 L13.0957895,2.65 L14.7014035,3.55 Z" id="Shape" fill="#CC274E" sketch:type="MSShapeGroup"></path>
            <path d="M14.7014035,34.15 L16.3070175,33.25 L16.3070175,31.35 L14.7014035,30.45 L13.0957895,31.35 L13.0957895,33.25 L14.7014035,34.15 Z" id="Shape" fill="#CC274E" sketch:type="MSShapeGroup"></path>
            <path d="M7.72701754,27.25 L9.33263158,26.35 L9.33263158,24.5 L7.72701754,23.55 L6.12140351,24.5 L6.12140351,26.35 L7.72701754,27.25 Z" id="Shape" fill="#CC274E" sketch:type="MSShapeGroup"></path>
            <path d="M7.72701754,10.55 L9.33263158,9.65 L9.33263158,7.8 L7.72701754,6.85 L6.12140351,7.8 L6.12140351,9.65 L7.72701754,10.55 Z" id="Shape" fill="#CC274E" sketch:type="MSShapeGroup"></path>
            <path d="M1.80631579,18.7 L3.41192982,17.75 L3.41192982,15.9 L1.80631579,15 L0.200701754,15.9 L0.200701754,17.75 L1.80631579,18.7 Z" id="Shape" fill="#CC274E" sketch:type="MSShapeGroup"></path>
            <path d="M25.5894737,7.3 L25.5894737,12.05 L21.4750877,14.4 L21.4750877,19.15 L25.5894737,21.55 L25.5894737,26.25 L29.854386,28.75 L33.8182456,26.45 L33.8182456,7.3 L29.7038596,4.95 L25.5894737,7.3 Z" id="Shape" fill="#CC274E" sketch:type="MSShapeGroup"></path>
            <g id="Group" transform="translate(39.638596, 6.000000)" fill="#576371" sketch:type="MSShapeGroup">
                <path d="M26.6933333,21.6 L26.6933333,0.4 L41.0435088,0.4 L41.0435088,4.7 L31.6607018,4.7 L31.6607018,8.7 L40.4915789,8.7 L40.4915789,12.8 L31.6607018,12.8 L31.6607018,17.2 L41.5452632,17.2 L41.5452632,21.6 L26.6933333,21.6 L26.6933333,21.6 Z" id="Shape"></path>
                <path d="M56.3470175,21.6 L51.7308772,13.15 L49.9747368,13.15 L49.9747368,21.6 L44.957193,21.6 L44.957193,0.4 L53.085614,0.4 C54.0891228,0.4 55.0926316,0.5 56.0961404,0.7 C57.0494737,0.9 57.9526316,1.25 58.7052632,1.75 C59.4578947,2.25 60.1101754,2.9 60.5617544,3.75 C61.0133333,4.55 61.2642105,5.6 61.2642105,6.8 C61.2642105,8.25 60.862807,9.45 60.1101754,10.45 C59.3073684,11.45 58.2536842,12.15 56.8487719,12.55 L62.4182456,21.65 L56.3470175,21.65 L56.3470175,21.6 Z M56.1463158,6.9 C56.1463158,6.4 56.0459649,6 55.8452632,5.7 C55.6445614,5.4 55.3435088,5.15 55.0424561,5 C54.6912281,4.85 54.34,4.7 53.9385965,4.65 C53.537193,4.6 53.1357895,4.55 52.734386,4.55 L49.9747368,4.55 L49.9747368,9.5 L52.4333333,9.5 C52.8347368,9.5 53.2863158,9.45 53.7378947,9.4 C54.1894737,9.35 54.5908772,9.2 54.9421053,9 C55.2933333,8.8 55.594386,8.55 55.8452632,8.2 C56.0459649,7.85 56.1463158,7.45 56.1463158,6.9 L56.1463158,6.9 Z" id="Shape"></path>
                <path d="M73.6575439,4.75 L73.6575439,21.6 L68.4894737,21.6 L68.4894737,4.75 L62.4684211,4.75 L62.4684211,0.35 L79.6785965,0.35 L79.6785965,4.75 L73.6575439,4.75 L73.6575439,4.75 Z" id="Shape"></path>
                <path d="M90.9680702,-0.2 C84.9470175,-0.2 80.0298246,4.7 80.0298246,10.7 C80.0298246,16.7 84.9470175,21.6 90.9680702,21.6 C96.9891228,21.6 101.906316,16.7 101.906316,10.7 C101.906316,4.7 97.0392982,-0.2 90.9680702,-0.2 L90.9680702,-0.2 Z M90.9680702,17 C87.5059649,17 84.6961404,14.2 84.6961404,10.75 C84.6961404,7.3 87.5059649,4.5 90.9680702,4.5 C94.4301754,4.5 97.24,7.3 97.24,10.75 C97.2901754,14.2 94.4803509,17 90.9680702,17 L90.9680702,17 Z" id="Shape"></path>
            </g>
            <path d="M51.8312281,5.8 C45.8101754,5.8 40.8929825,10.7 40.8929825,16.7 C40.8929825,22.7 45.8101754,27.6 51.8312281,27.6 C57.8522807,27.6 62.7694737,22.7 62.7694737,16.7 C62.7694737,10.7 57.9024561,5.8 51.8312281,5.8 L51.8312281,5.8 Z M51.8312281,23 C48.3691228,23 45.5592982,20.2 45.5592982,16.75 C45.5592982,13.3 48.3691228,10.5 51.8312281,10.5 C55.2933333,10.5 58.1031579,13.3 58.1031579,16.75 C58.1533333,20.2 55.3435088,23 51.8312281,23 L51.8312281,23 Z" id="Shape" fill="#576371" sketch:type="MSShapeGroup"></path>
            <path d="M63.7729825,24.8 L60.2607018,21.3 C59.6084211,23.05 58.2035088,24.45 56.4473684,25.1 L59.9596491,28.6 C61.5150877,27.65 62.8196491,26.35 63.7729825,24.8 L63.7729825,24.8 Z" id="Shape" fill="#576371" sketch:type="MSShapeGroup"></path>
        </g>
    </g>
</svg>