<?xml version="1.0" encoding="UTF-8" standalone="no"?>
<svg width="1414px" height="190px" viewBox="0 0 1414 190" version="1.1" xmlns="http://www.w3.org/2000/svg" xmlns:xlink="http://www.w3.org/1999/xlink" xmlns:sketch="http://www.bohemiancoding.com/sketch/ns">
    <!-- Generator: Sketch 3.1.1 (8761) - http://www.bohemiancoding.com/sketch -->
    <title>Artboard 1</title>
    <desc>Created with Sketch.</desc>
    <defs></defs>
    <g id="Page-1" stroke="none" stroke-width="1" fill="none" fill-rule="evenodd" sketch:type="MSPage">
        <g id="Artboard-1" sketch:type="MSArtboardGroup">
            <g id="Footer-2" sketch:type="MSLayerGroup" transform="translate(-33.000000, 28.000000)">
                <g id="Line-+-Group-2" sketch:type="MSShapeGroup">
                    <g id="Line" transform="translate(0.000000, 5.000000)" stroke-linecap="square">
                        <g id="Group" transform="translate(0.000000, 2.000000)">
                            <path d="M73.5,47.5 L16.5,83.5" id="Line" stroke="#FFFFFF"></path>
                            <path d="M73.5,46.5 L185.5,111.5" id="Line" stroke="#FFFFFF"></path>
                            <path d="M251.5,52.5 L338.5,96.5" id="Line" stroke="#FFFFFF"></path>
                            <path d="M72.5,48.5 L442.5,6.5" id="Line" stroke="#FFFFFF"></path>
                            <path d="M74.5,45.5 L250.5,53.5" id="Line" stroke="#FFFFFF"></path>
                            <path d="M184.5,112.5 L251.5,52.5" id="Line" stroke="#FFFFFF"></path>
                            <path d="M253.5,54.5 L441.5,8.5" id="Line" stroke="#FFFFFF"></path>
                            <path d="M440.5,8.5 L338.5,98.5" id="Line" stroke="#FFFFFF"></path>
                            <path d="M440.5,6.5 L614.5,62.5" id="Line" stroke="#979797"></path>
                            <path d="M440.5,6.5 L534.5,126.5" id="Line" stroke="#979797"></path>
                            <path d="M534.5,127.5 L612.5,62.5" id="Line" stroke="#979797"></path>
                            <path d="M612.5,62.5 L925.5,62.5" id="Line" stroke="#979797"></path>
                            <path d="M925.5,62.5 L441.5,7.5" id="Line" stroke="#979797"></path>
                            <path d="M611.5,61.5 L780.5,166.5" id="Line" stroke="#979797"></path>
                            <path d="M535.5,127.5 L337.5,96.5" id="Line" stroke="#979797"></path>
                            <path d="M338.5,96.5 L184.5,112.5" id="Line" stroke="#979797"></path>
                            <path d="M184.5,112.5 L0.5,151.5" id="Line" stroke="#979797"></path>
                            <path d="M184.5,113.5 L204.5,184.5" id="Line" stroke="#979797"></path>
                            <path d="M338.5,97.5 L311.5,171.5" id="Line" stroke="#979797"></path>
                            <path d="M532.5,127.5 L497.5,174.5" id="Line" stroke="#979797"></path>
                            <path d="M534.5,128.5 L626.5,172.5" id="Line" stroke="#979797"></path>
                            <path d="M924.5,63.5 L838.5,165.5" id="Line" stroke="#979797"></path>
                            <path d="M926.5,62.5 L1149.5,0.5" id="Line" stroke="#979797"></path>
                            <path d="M1150.5,0.5 L1336.5,119.5" id="Line" stroke="#979797"></path>
                            <path d="M1336.5,119.5 L1503.5,94.5" id="Line" stroke="#979797"></path>
                            <path d="M1336.5,121.5 L1381.5,164.5" id="Line" stroke="#979797"></path>
                            <path d="M1335.5,118.5 L1154.5,193.5" id="Line" stroke="#979797"></path>
                            <path d="M1333.5,118.5 L924.5,64.5" id="Line" stroke="#979797"></path>
                            <path d="M1150.5,0.5 L1474.5,74.5" id="Line" stroke="#979797"></path>
                        </g>
                        <g id="Group" transform="translate(10.000000, 0.000000)" stroke="#646E79">
                            <path d="M163.5,74.5 L63.5,50.5" id="Line"></path>
                            <path d="M-13.5,88.5 L63.5,50.5" id="Line-2"></path>
                            <path d="M162.5,75.5 L315.5,65.5" id="Line"></path>
                            <path d="M315.5,63.5 L431.5,8.5" id="Line"></path>
                            <path d="M432.5,8.5 L427.5,77.5" id="Line"></path>
                            <path d="M428.5,78.5 L316.5,65.5" id="Line"></path>
                            <path d="M316.5,65.5 L240.5,56.5" id="Line"></path>
                            <path d="M240.5,56.5 L161.5,76.5" id="Line"></path>
                            <path d="M161.5,76.5 L0.5,133.5" id="Line"></path>
                            <path d="M317.5,65.5 L329.5,100.5" id="Line"></path>
                            <path d="M429.5,77.5 L525.5,130.5" id="Line"></path>
                            <path d="M524.5,130.5 L621.5,46.5" id="Line"></path>
                            <path d="M622.5,46.5 L432.5,9.5" id="Line"></path>
                            <path d="M622.5,46.5 L877.5,29.5" id="Line"></path>
                            <path d="M877.5,29.5 L964.5,125.5" id="Line"></path>
                            <path d="M964.5,125.5 L806.5,112.5" id="Line"></path>
                            <path d="M806.5,112.5 L621.5,46.5" id="Line"></path>
                            <path d="M621.5,46.5 L621.5,46.5" id="Line"></path>
                            <path d="M876.5,29.5 L1141.5,0.5" id="Line"></path>
                            <path d="M1141.5,0.5 L1146.5,54.5" id="Line"></path>
                            <path d="M1146.5,54.5 L962.5,126.5" id="Line"></path>
                            <path d="M1143.5,52.5 L1320.5,81.5" id="Line"></path>
                            <path d="M1319.5,81.5 L1372.5,9.5" id="Line"></path>
                            <path d="M1372.5,9.5 L1141.5,0.5" id="Line"></path>
                            <path d="M1319.5,80.5 L1326.5,122.5" id="Line"></path>
                            <path d="M1326.5,121.5 L1371.5,9.5" id="Line"></path>
                            <path d="M1371.5,9.5 L1491.5,104.5" id="Line"></path>
                            <path d="M1322.5,122.5 L1143.5,53.5" id="Line"></path>
                            <path d="M1143.5,53.5 L1143.5,193.5" id="Line"></path>
                            <path d="M960.5,125.5 L976.5,169.5" id="Line"></path>
                            <path d="M804.5,112.5 L804.5,177.5" id="Line"></path>
                            <path d="M621.5,46.5 L690.5,186.5" id="Line"></path>
                            <path d="M428.5,78.5 L392.5,174.5" id="Line"></path>
                            <path d="M315.5,65.5 L249.5,206.5" id="Line"></path>
                            <path d="M160.5,75.5 L36.5,199.5" id="Line"></path>
                        </g>
                    </g>
                    <g id="Group" transform="translate(67.000000, 0.000000)" fill="#D2D2D2">
                        <circle id="Oval-11" cx="372" cy="83" r="5"></circle>
                        <circle id="Oval-12" cx="260" cy="70" r="5"></circle>
                        <circle id="Oval-13" cx="565" cy="52" r="5"></circle>
                        <circle id="Oval-14" cx="106" cy="80" r="5"></circle>
                        <circle id="Oval-15" cx="749" cy="117" r="5"></circle>
                        <circle id="Oval-16" cx="820" cy="35" r="5"></circle>
                        <circle id="Oval-17" cx="906" cy="130" r="5"></circle>
                        <circle id="Oval-18" cx="1088" cy="58" r="5"></circle>
                        <circle id="Oval-19" cx="1264" cy="87" r="5"></circle>
                        <circle id="Oval-20" cx="1315" cy="15" r="5"></circle>
                        <circle id="Oval-1" cx="185.5" cy="61.5" r="7.5"></circle>
                        <circle id="Oval-2" cx="272.5" cy="103.5" r="7.5"></circle>
                        <circle id="Oval-3" cx="375.5" cy="14.5" r="7.5"></circle>
                        <circle id="Oval-4" cx="118.5" cy="118.5" r="7.5"></circle>
                        <circle id="Oval-5" cx="546.5" cy="69.5" r="7.5"></circle>
                        <circle id="Oval-6" cx="7.5" cy="54.5" r="7.5"></circle>
                        <circle id="Oval-7" cx="467.5" cy="133.5" r="7.5"></circle>
                        <circle id="Oval-8" cx="858.5" cy="69.5" r="7.5"></circle>
                        <circle id="Oval-9" cx="1083.5" cy="7.5" r="7.5"></circle>
                        <circle id="Oval-10" cx="1269.5" cy="126.5" r="7.5"></circle>
                    </g>
                </g>
            </g>
        </g>
    </g>
</svg>