<?xml version="1.0" encoding="UTF-8" standalone="no"?>
<svg width="633px" height="490px" viewBox="0 0 633 490" version="1.1" xmlns="http://www.w3.org/2000/svg" xmlns:xlink="http://www.w3.org/1999/xlink" xmlns:sketch="http://www.bohemiancoding.com/sketch/ns">
    <!-- Generator: Sketch 3.1.1 (8761) - http://www.bohemiancoding.com/sketch -->
    <title>Illustration</title>
    <desc>Created with Sketch.</desc>
    <defs>
        <rect id="path-1" x="0" y="3" width="152" height="45" rx="2"></rect>
        <rect id="path-2" x="0" y="0" width="619" height="74"></rect>
        <filter x="-50%" y="-50%" width="200%" height="200%" filterUnits="objectBoundingBox" id="filter-3">
            <feOffset dx="0" dy="10" in="SourceAlpha" result="shadowOffsetOuter1"></feOffset>
            <feGaussianBlur stdDeviation="6.5" in="shadowOffsetOuter1" result="shadowBlurOuter1"></feGaussianBlur>
            <feColorMatrix values="0 0 0 0 0   0 0 0 0 0   0 0 0 0 0  0 0 0 0.172443954 0" in="shadowBlurOuter1" type="matrix" result="shadowMatrixOuter1"></feColorMatrix>
            <feMerge>
                <feMergeNode in="shadowMatrixOuter1"></feMergeNode>
                <feMergeNode in="SourceGraphic"></feMergeNode>
            </feMerge>
        </filter>
        <filter x="-50%" y="-50%" width="200%" height="200%" filterUnits="objectBoundingBox" id="filter-4">
            <feOffset dx="0" dy="1" in="SourceAlpha" result="shadowOffsetOuter1"></feOffset>
            <feGaussianBlur stdDeviation="0" in="shadowOffsetOuter1" result="shadowBlurOuter1"></feGaussianBlur>
            <feColorMatrix values="0 0 0 0 1   0 0 0 0 1   0 0 0 0 1  0 0 0 0.7 0" in="shadowBlurOuter1" type="matrix" result="shadowMatrixOuter1"></feColorMatrix>
            <feMerge>
                <feMergeNode in="shadowMatrixOuter1"></feMergeNode>
                <feMergeNode in="SourceGraphic"></feMergeNode>
            </feMerge>
        </filter>
        <filter x="-50%" y="-50%" width="200%" height="200%" filterUnits="objectBoundingBox" id="filter-5">
            <feOffset dx="0" dy="1" in="SourceAlpha" result="shadowOffsetOuter1"></feOffset>
            <feGaussianBlur stdDeviation="0" in="shadowOffsetOuter1" result="shadowBlurOuter1"></feGaussianBlur>
            <feColorMatrix values="0 0 0 0 1   0 0 0 0 1   0 0 0 0 1  0 0 0 0.7 0" in="shadowBlurOuter1" type="matrix" result="shadowMatrixOuter1"></feColorMatrix>
            <feMerge>
                <feMergeNode in="shadowMatrixOuter1"></feMergeNode>
                <feMergeNode in="SourceGraphic"></feMergeNode>
            </feMerge>
        </filter>
        <filter x="-50%" y="-50%" width="200%" height="200%" filterUnits="objectBoundingBox" id="filter-6">
            <feOffset dx="0" dy="1" in="SourceAlpha" result="shadowOffsetOuter1"></feOffset>
            <feGaussianBlur stdDeviation="0" in="shadowOffsetOuter1" result="shadowBlurOuter1"></feGaussianBlur>
            <feColorMatrix values="0 0 0 0 1   0 0 0 0 1   0 0 0 0 1  0 0 0 0.7 0" in="shadowBlurOuter1" type="matrix" result="shadowMatrixOuter1"></feColorMatrix>
            <feMerge>
                <feMergeNode in="shadowMatrixOuter1"></feMergeNode>
                <feMergeNode in="SourceGraphic"></feMergeNode>
            </feMerge>
        </filter>
    </defs>
    <g id="Page-1" stroke="none" stroke-width="1" fill="none" fill-rule="evenodd" sketch:type="MSPage">
        <g id="Illustration" sketch:type="MSLayerGroup" transform="translate(0.000000, -20.000000)">
            <g id="Group" transform="translate(0.000000, 146.000000)">
                <rect id="BG-Search" fill="#F3F3F3" sketch:type="MSShapeGroup" x="0" y="73" width="620" height="291"></rect>
                <g id="Zone-de-recherche" transform="translate(17.000000, 73.000000)">
                    <rect id="Rectangle-97" stroke="#575757" stroke-width="4" stroke-dasharray="10" sketch:type="MSShapeGroup" x="303" y="128" width="277" height="64" rx="8"></rect>
                    <g id="Search-button" transform="translate(10.000000, 215.000000)">
                        <g id="Rectangle-2">
                            <use fill="#FF7E6B" fill-rule="evenodd" sketch:type="MSShapeGroup" xlink:href="#path-1"></use>
                            <use fill="none" xlink:href="#path-1"></use>
                        </g>
                        <text id="Rechercher" fill="#FFFFFF" sketch:type="MSTextLayer" font-family="Open Sans" font-size="12" font-weight="normal" line-spacing="34">
                            <tspan x="41" y="13">Rechercher</tspan>
                        </text>
                    </g>
                    <g id="Form">
                        <g id="Fieldset" transform="translate(0.000000, 79.000000)">
                            <rect id="Rectangle-95" stroke="#D0D0D0" sketch:type="MSShapeGroup" x="0" y="25" width="592" height="97" rx="3"></rect>
                            <rect id="Rectangle-96" fill="#F3F3F3" sketch:type="MSShapeGroup" x="8" y="14" width="172" height="24"></rect>
                            <text id="Emetteur-de-la-comma" fill="#262D37" sketch:type="MSTextLayer" font-family="Open Sans" font-size="12" font-weight="260" line-spacing="34">
                                <tspan x="20" y="13">Emetteur de la commande</tspan>
                            </text>
                        </g>
                        <g id="input-text" transform="translate(10.000000, 0.000000)">
                            <rect id="Rectangle-21" stroke="#DBDBDB" fill="#FFFFFF" sketch:type="MSShapeGroup" x="0" y="37" width="282" height="36" rx="2"></rect>
                            <text id="Fournisseur" fill="#262D37" sketch:type="MSTextLayer" font-family="Open Sans" font-size="12" font-weight="260" line-spacing="34">
                                <tspan x="0" y="13">Fournisseur</tspan>
                            </text>
                            <text id="Fournisseur-A" fill="#4D4D4D" sketch:type="MSTextLayer" font-family="Open Sans" font-size="12" font-weight="260" line-spacing="34">
                                <tspan x="15" y="42">Fournisseur A</tspan>
                            </text>
                        </g>
                        <g id="input-text-2" transform="translate(20.000000, 107.000000)">
                            <rect id="Rectangle-21" stroke="#DBDBDB" fill="#FFFFFF" sketch:type="MSShapeGroup" x="0" y="37" width="272" height="36" rx="2"></rect>
                            <text id="Nom" fill="#262D37" sketch:type="MSTextLayer" font-family="Open Sans" font-size="12" font-weight="260" line-spacing="34">
                                <tspan x="0" y="13">Nom</tspan>
                            </text>
                        </g>
                        <g id="input-text" transform="translate(306.000000, 0.000000)">
                            <rect id="Rectangle-21" stroke="#DBDBDB" fill="#FFFFFF" sketch:type="MSShapeGroup" x="0" y="37" width="282" height="36" rx="2"></rect>
                            <text id="Entre-le-15/03/2013-" fill="#4D4D4D" sketch:type="MSTextLayer" font-family="Open Sans" font-size="12" font-weight="260" line-spacing="34">
                                <tspan x="14" y="42">Entre le 15/03/2013 et le 18/03/2013</tspan>
                            </text>
                            <text id="Date-de-création" fill="#262D37" sketch:type="MSTextLayer" font-family="Open Sans" font-size="12" font-weight="260" line-spacing="34">
                                <tspan x="0" y="13">Date de création</tspan>
                            </text>
                        </g>
                    </g>
                </g>
                <g id="Sub-Header" transform="translate(1.000000, 0.000000)">
                    <g id="Rectangle-11">
                        <use fill="#5D93EA" fill-rule="evenodd" sketch:type="MSShapeGroup" xlink:href="#path-2"></use>
                        <use fill="none" xlink:href="#path-2"></use>
                        <use fill="none" xlink:href="#path-2"></use>
                    </g>
                    <text id="Dashboard----&gt;----Co" fill="#FFFFFF" sketch:type="MSTextLayer" font-family="Open Sans" font-size="14" font-weight="normal" line-spacing="34">
                        <tspan x="24" y="28">Dashboard    &gt;    Commandes</tspan>
                    </text>
                </g>
            </g>
            <g id="Group" transform="translate(31.000000, 0.000000)">
                <g id="Dropper" transform="translate(322.000000, 284.000000)">
                    <g id="selectbox">
                        <rect id="Rectangle-21" stroke="#DBDBDB" fill="#FFFFFF" filter="url(#filter-3)" sketch:type="MSShapeGroup" x="26" y="37" width="242" height="36" rx="2"></rect>
                        <text id="Service" fill="#262D37" sketch:type="MSTextLayer" font-family="Open Sans" font-size="12" font-weight="260" line-spacing="34">
                            <tspan x="26" y="13">Service</tspan>
                        </text>
                        <path d="M245,53 L254,53 L249.5,59 L245,53 Z" id="Triangle-1" fill="#323A45" filter="url(#filter-4)" sketch:type="MSShapeGroup"></path>
                        <path d="M231.5,40.5 L231.5,67.5" id="Line" stroke="#EFEFEF" stroke-linecap="square" sketch:type="MSShapeGroup"></path>
                    </g>
                    <g id="Group" transform="translate(173.000000, 51.000000)" sketch:type="MSShapeGroup">
                        <path d="M1.9,0.3 C2.4,0.1 3.3,0.2 3.6,0.8 C3.8,1.3 4,2 4,1.9 C4,1.5 4,0.7 4.1,0.3 C4.2,0 4.4,-0.3 4.8,-0.4 C5.1,-0.5 5.4,-0.5 5.7,-0.5 C6,-0.4 6.3,-0.2 6.5,2.84217094e-14 C6.9,0.6 6.9,1.9 6.9,1.8 C7,1.5 7,0.6 7.2,0.2 C7.3,5.68434189e-14 7.7,-0.2 7.9,-0.3 C8.2,-0.4 8.6,-0.4 8.9,-0.3 C9.1,-0.3 9.5,5.68434189e-14 9.6,0.2 C9.8,0.5 9.9,1.5 10,1.9 C10,2 10.1,1.5 10.3,1.2 C10.7,0.6 12.1,0.4 12.2,1.8 L12.2,2.9 L12.2,4.1 C12.2,4.5 12.1,5.4 12,5.8 C11.9,6.1 11.6,6.8 11.3,7.2 C11.3,7.2 10.2,8.4 10.1,9 C10,9.6 10,9.6 10,10 C10,10.4 10.1,10.9 10.1,10.9 C10.1,10.9 9.3,11 8.9,10.9 C8.5,10.8 8,10.1 7.9,9.8 C7.7,9.5 7.4,9.5 7.2,9.8 C7,10.2 6.5,10.9 6.1,10.9 C5.4,11 4,10.9 3,10.9 C3,10.9 3.2,9.9 2.8,9.5 L1.7,8.4 L0.9,7.5 C0.6,7.1 -0.1,6.6 -0.3,5.5 C-0.5,4.6 -0.5,4.1 -0.3,3.7 C-0.1,3.3 0.4,3.1 0.6,3.1 C0.8,3.1 1.3,3.1 1.5,3.2 C1.7,3.3 1.8,3.4 2,3.6 C2.2,3.9 2.3,4.1 2.2,3.7 C2.1,3.4 1.9,3.1 1.8,2.7 C1.7,2.3 1.4,1.8 1.4,1.2 C1,1.1 1.1,0.6 1.9,0.3" id="Shape" fill="#FFFFFF"></path>
                        <path d="M1.9,0.3 C2.4,0.1 3.3,0.2 3.6,0.8 C3.8,1.3 4,2 4,1.9 C4,1.5 4,0.7 4.1,0.3 C4.2,0 4.4,-0.3 4.8,-0.4 C5.1,-0.5 5.4,-0.5 5.7,-0.5 C6,-0.4 6.3,-0.2 6.5,2.84217094e-14 C6.9,0.6 6.9,1.9 6.9,1.8 C7,1.5 7,0.6 7.2,0.2 C7.3,5.68434189e-14 7.7,-0.2 7.9,-0.3 C8.2,-0.4 8.6,-0.4 8.9,-0.3 C9.1,-0.3 9.5,5.68434189e-14 9.6,0.2 C9.8,0.5 9.9,1.5 10,1.9 C10,2 10.1,1.5 10.3,1.2 C10.7,0.6 12.1,0.4 12.2,1.8 L12.2,2.9 L12.2,4.1 C12.2,4.5 12.1,5.4 12,5.8 C11.9,6.1 11.6,6.8 11.3,7.2 C11.3,7.2 10.2,8.4 10.1,9 C10,9.6 10,9.6 10,10 C10,10.4 10.1,10.9 10.1,10.9 C10.1,10.9 9.3,11 8.9,10.9 C8.5,10.8 8,10.1 7.9,9.8 C7.7,9.5 7.4,9.5 7.2,9.8 C7,10.2 6.5,10.9 6.1,10.9 C5.4,11 4,10.9 3,10.9 C3,10.9 3.2,9.9 2.8,9.5 L1.7,8.4 L0.9,7.5 C0.6,7.1 -0.1,6.6 -0.3,5.5 C-0.5,4.6 -0.5,4.1 -0.3,3.7 C-0.1,3.3 0.4,3.1 0.6,3.1 C0.8,3.1 1.3,3.1 1.5,3.2 C1.7,3.3 1.8,3.4 2,3.6 C2.2,3.9 2.3,4.1 2.2,3.7 C2.1,3.4 1.9,3.1 1.8,2.7 C1.7,2.3 1.4,1.8 1.4,1.2 C1,1.1 1.1,0.6 1.9,0.3 L1.9,0.3 Z" id="Shape" stroke="#000000" stroke-width="0.75"></path>
                        <path d="M8.9,8 L8.9,4.5" id="Shape" stroke="#000000" stroke-width="0.75"></path>
                        <path d="M6.8,8 L6.8,4.5" id="Shape" stroke="#000000" stroke-width="0.75"></path>
                        <path d="M4.8,4.6 L4.9,8" id="Shape" stroke="#000000" stroke-width="0.75"></path>
                    </g>
                </g>
                <g id="selectbox-2" transform="translate(309.000000, 0.000000)">
                    <rect id="Rectangle-21" stroke="#DBDBDB" fill="#FFFFFF" sketch:type="MSShapeGroup" x="36" y="37" width="232" height="36" rx="2"></rect>
                    <text id="Service" fill="#262D37" sketch:type="MSTextLayer" font-family="Open Sans" font-size="12" font-weight="260" line-spacing="34">
                        <tspan x="36" y="13">Service</tspan>
                    </text>
                    <path d="M245,53 L254,53 L249.5,59 L245,53 Z" id="Triangle-1" fill="#323A45" filter="url(#filter-5)" sketch:type="MSShapeGroup"></path>
                    <path d="M231.5,40.5 L231.5,67.5" id="Line" stroke="#EFEFEF" stroke-linecap="square" sketch:type="MSShapeGroup"></path>
                </g>
                <g id="selectbox-3" transform="translate(89.000000, 0.000000)">
                    <rect id="Rectangle-21" stroke="#DBDBDB" fill="#FFFFFF" sketch:type="MSShapeGroup" x="36" y="37" width="207" height="36" rx="2"></rect>
                    <text id="Prénom" fill="#262D37" sketch:type="MSTextLayer" font-family="Open Sans" font-size="12" font-weight="260" line-spacing="34">
                        <tspan x="36" y="13">Prénom</tspan>
                    </text>
                </g>
                <g id="input-text">
                    <rect id="Rectangle-21" stroke="#DBDBDB" fill="#FFFFFF" sketch:type="MSShapeGroup" x="0" y="37" width="112" height="36" rx="2"></rect>
                    <path d="M89,54 L98,54 L93.5,60 L89,54 Z" id="Triangle-3" fill="#323A45" filter="url(#filter-6)" sketch:type="MSShapeGroup"></path>
                    <path d="M75.5,41.5 L75.5,68.5" id="Line-3" stroke="#EFEFEF" stroke-linecap="square" sketch:type="MSShapeGroup"></path>
                    <text id="Civilité" fill="#262D37" sketch:type="MSTextLayer" font-family="Open Sans" font-size="12" font-weight="260" line-spacing="34">
                        <tspan x="0" y="13">Civilité</tspan>
                    </text>
                </g>
            </g>
            <g id="Group" transform="translate(510.000000, 66.000000)" sketch:type="MSShapeGroup">
                <path d="M3.8,7.8 C3.7,7.4 3.6,7 3.4,6.2 C3.2,5.6 3.1,5.3 2.9,5 C2.7,4.5 2.6,4.3 2.4,3.8 C2.3,3.5 2,2.8 1.9,2.4 C1.8,1.9 1.9,1.5 2.1,1.2 C2.4,0.9 3.1,0.7 3.5,0.8 C3.9,0.9 4.2,1.3 4.4,1.6 C4.7,2.1 4.8,2.2 5.1,3.1 C5.5,4.1 5.7,5 5.7,5.3 L5.8,5.8 L5.8,4.6 C5.8,3.6 5.7,2.8 5.8,1.7 C5.8,1.6 5.9,1.1 5.9,1 C6,0.5 6.2,0.2 6.6,7.10542736e-14 C7,-0.2 7.5,-0.2 8,7.10542736e-14 C8.4,0.2 8.6,0.6 8.7,1 C8.7,1.1 8.8,2 8.8,2.1 L8.8,4.3 L8.8,5.8 C8.9,5.1 8.9,2.6 9.1,1.9 C9.2,1.5 9.5,1.2 9.9,1 C10.3,0.8 11,0.9 11.3,1.2 C11.6,1.5 11.7,1.9 11.8,2.4 L11.8,3.6 L11.8,5.7 L11.8,5.9 C11.9,5.6 12,5.4 12.1,5.2 C12.1,5.1 12.3,4.6 12.5,4.3 C12.6,4.1 12.7,3.9 12.9,3.6 C13.1,3.3 13.3,3.2 13.6,3 C14.1,2.8 14.7,3.1 14.9,3.6 C15,3.8 14.9,4.3 14.9,4.7 C14.8,5.3 14.6,6 14.5,6.3 C14.4,6.7 14.2,7.5 14.2,7.9 C14.1,8.3 14,9.3 13.8,9.7 C13.7,10 13.4,10.7 13.1,11.1 C13.1,11.1 12,12.3 11.9,12.9 C11.8,13.5 11.8,13.5 11.8,13.9 C11.8,14.3 11.9,14.8 11.9,14.8 C11.9,14.8 11.1,14.9 10.7,14.8 C10.3,14.7 9.8,14 9.7,13.7 C9.5,13.4 9.2,13.4 9,13.7 C8.8,14.1 8.3,14.8 7.9,14.8 C7.2,14.9 5.8,14.8 4.8,14.8 C4.8,14.8 5,13.8 4.6,13.4 C4.3,13.1 3.8,12.6 3.5,12.3 L2.7,11.4 C2.4,11 2.1,10.3 1.5,9.4 C1.2,8.9 0.5,8.3 0.2,7.8 C4.57689442e-14,7.4 -0.1,6.8 4.57689442e-14,6.5 C0.2,5.9 0.7,5.6 1.4,5.7 C1.9,5.7 2.2,5.9 2.6,6.2 C2.8,6.4 3.2,6.7 3.4,6.9 C3.6,7.1 3.6,7.2 3.8,7.4 C3.8,8 3.9,8.2 3.8,7.8" id="Shape" fill="#FFFFFF"></path>
                <path d="M3.8,7.8 C3.7,7.4 3.6,7 3.4,6.2 C3.2,5.6 3.1,5.3 2.9,5 C2.7,4.5 2.6,4.3 2.4,3.8 C2.3,3.5 2,2.8 1.9,2.4 C1.8,1.9 1.9,1.5 2.1,1.2 C2.4,0.9 3.1,0.7 3.5,0.8 C3.9,0.9 4.2,1.3 4.4,1.6 C4.7,2.1 4.8,2.2 5.1,3.1 C5.5,4.1 5.7,5 5.7,5.3 L5.8,5.8 L5.8,4.6 C5.8,3.6 5.7,2.8 5.8,1.7 C5.8,1.6 5.9,1.1 5.9,1 C6,0.5 6.2,0.2 6.6,7.10542736e-14 C7,-0.2 7.5,-0.2 8,7.10542736e-14 C8.4,0.2 8.6,0.6 8.7,1 C8.7,1.1 8.8,2 8.8,2.1 L8.8,4.3 L8.8,5.8 C8.9,5.1 8.9,2.6 9.1,1.9 C9.2,1.5 9.5,1.2 9.9,1 C10.3,0.8 11,0.9 11.3,1.2 C11.6,1.5 11.7,1.9 11.8,2.4 L11.8,3.6 L11.8,5.7 L11.8,5.9 C11.9,5.6 12,5.4 12.1,5.2 C12.1,5.1 12.3,4.6 12.5,4.3 C12.6,4.1 12.7,3.9 12.9,3.6 C13.1,3.3 13.3,3.2 13.6,3 C14.1,2.8 14.7,3.1 14.9,3.6 C15,3.8 14.9,4.3 14.9,4.7 C14.8,5.3 14.6,6 14.5,6.3 C14.4,6.7 14.2,7.5 14.2,7.9 C14.1,8.3 14,9.3 13.8,9.7 C13.7,10 13.4,10.7 13.1,11.1 C13.1,11.1 12,12.3 11.9,12.9 C11.8,13.5 11.8,13.5 11.8,13.9 C11.8,14.3 11.9,14.8 11.9,14.8 C11.9,14.8 11.1,14.9 10.7,14.8 C10.3,14.7 9.8,14 9.7,13.7 C9.5,13.4 9.2,13.4 9,13.7 C8.8,14.1 8.3,14.8 7.9,14.8 C7.2,14.9 5.8,14.8 4.8,14.8 C4.8,14.8 5,13.8 4.6,13.4 C4.3,13.1 3.8,12.6 3.5,12.3 L2.7,11.4 C2.4,11 2.1,10.3 1.5,9.4 C1.2,8.9 0.5,8.3 0.2,7.8 C4.57689442e-14,7.4 -0.1,6.8 4.57689442e-14,6.5 C0.2,5.9 0.7,5.6 1.4,5.7 C1.9,5.7 2.2,5.9 2.6,6.2 C2.8,6.4 3.2,6.7 3.4,6.9 C3.6,7.1 3.6,7.2 3.8,7.4 C3.8,8 3.9,8.2 3.8,7.8" id="Shape" stroke="#000000" stroke-width="0.75"></path>
                <path d="M10.8,12 L10.8,8.5" id="Shape" stroke="#000000" stroke-width="0.75"></path>
                <path d="M8.8,12 L8.8,8.5" id="Shape" stroke="#000000" stroke-width="0.75"></path>
                <path d="M6.8,8.6 L6.8,12" id="Shape" stroke="#000000" stroke-width="0.75"></path>
            </g>
        </g>
    </g>
</svg>